<svg xmlns="http://www.w3.org/2000/svg" viewBox="0 0 600 600"><path d="M142.58 74.16c30.72 0 58.18 14.63 82.36 43.83 24.19 29.22 36.3 67.81 36.3 115.72 0 40.7-22.03 103.08-65.98 187.12-44.03 84.05-76.71 126.08-98.16 126.08-12.04 0-18.07-6.25-18.07-18.72 0-3.29 12.53-30.53 37.68-81.75 25.11-51.2 37.64-91.26 37.64-120.14 0-22.34-14.23-40.57-42.64-54.66-28.45-14.11-47.37-28.9-56.87-44.33-9.46-15.42-14.23-32.01-14.23-49.74 0-32.16 9.5-57.45 28.45-75.82s43.45-27.59 73.52-27.59zm282.65 0c30.72 0 58.18 14.63 82.36 43.83 24.18 29.22 36.3 67.81 36.3 115.72 0 40.7-21.99 103.08-65.98 187.12-43.99 84.05-76.71 126.08-98.13 126.08-12.07 0-18.11-6.25-18.11-18.72 0-3.29 12.57-30.53 37.68-81.75 25.11-51.2 37.68-91.26 37.68-120.14 0-22.34-14.23-40.57-42.68-54.66-28.42-14.11-47.37-28.9-56.87-44.33-9.46-15.42-14.19-32.01-14.19-49.74 0-32.16 9.46-57.45 28.41-75.82 18.96-18.39 43.46-27.59 73.53-27.59z" fill="#fff"/></svg>