<svg xmlns="http://www.w3.org/2000/svg" width="400" height="400"><path d="M193.042 6.038c-68.054 2.997-127.95 40.094-160.916 99.661-4.292 7.756-12.079 24.784-12.079 26.414 0 .109 2.845.198 6.321.198h6.321l1.727-4.068C56.66 75.845 102.499 36.621 157.254 23.134c85.332-21.019 173.417 23.351 208.195 104.873l1.836 4.304h6.334c3.484 0 6.334-.063 6.334-.141 0-.447-3.927-9.905-5.817-14.01C341.686 47.684 269.016 2.691 193.042 6.038m5.299 36.208c-.004 1.216-.206 8.314-.449 15.773-.243 7.459-.411 13.593-.374 13.632.123.127 12.696.525 12.815.406.064-.064.166-1.162.228-2.44l.112-2.325-2.543-.155c-1.399-.086-3.216-.156-4.039-.156h-1.497l-.003-.884c-.002-.487.172-6.433.386-13.214.215-6.782.349-12.37.299-12.419-.051-.05-1.18-.167-2.509-.26l-2.418-.17-.008 2.212m-25.169.259l-2.653.485v32.07l1.002-.156c.552-.085 1.666-.269 2.477-.408l1.474-.252v-3.627c0-4.128-.303-3.623 2.46-4.101 2.267-.392 2.062-.585 3.196 3.001.563 1.783 1.087 3.311 1.163 3.396.273.302 4.848-.616 4.908-.985.031-.191-2.209-6.981-4.978-15.088l-5.034-14.741-.681-.04c-.374-.022-1.875.179-3.334.446m49.018 15.156c-1.472 8.508-2.601 15.545-2.509 15.637.203.204 4.448.976 4.601.837.173-.156 5.426-30.594 5.329-30.88-.048-.142-.92-.39-1.937-.549-1.016-.16-2.064-.341-2.328-.402-.457-.107-.597.572-3.156 15.357m20.99-9.017c-.4 1.201-.727 2.251-.727 2.335 0 .084 1.008.508 2.24.943 1.232.435 2.24.914 2.241 1.064 0 .151-1.857 5.766-4.127 12.479-2.27 6.712-4.128 12.285-4.128 12.383 0 .152 4.089 1.633 4.509 1.633.08 0 2.033-5.598 4.341-12.441 2.307-6.842 4.225-12.478 4.261-12.524.037-.046 1.056.246 2.264.648 1.208.403 2.268.732 2.354.732.272 0 1.674-4.514 1.46-4.703-.213-.19-13.426-4.731-13.765-4.731-.108 0-.523.982-.923 2.182m-95.936.605l-2.166.876 4.477 11.671c4.844 12.629 4.822 12.542 3.567 13.735-.89.847-1.725 1.01-2.73.533-1.045-.496-.775.108-5.701-12.752-2.284-5.959-4.248-10.932-4.365-11.05-.207-.209-4.143 1.162-4.365 1.521-.117.19 8.323 22.32 9.053 23.735 3.253 6.306 13.196 4.286 14.072-2.858.227-1.856-1.363-6.445-8.975-25.898-.216-.552-.357-.528-2.867.487m29.623 6.943c.798 2.563 1.506 4.803 1.573 4.978.117.304-2.675.967-2.959.703-.06-.056-.152-2.459-.204-5.339-.051-2.88-.041-5.184.023-5.119.064.065.769 2.215 1.567 4.777m95.665 1.863c-.061.175-.92 4.454-1.908 9.509l-1.796 9.191-3.282 5.624c-1.805 3.093-3.282 5.71-3.282 5.815 0 .157 3.875 2.608 4.124 2.608.043 0 1.572-2.574 3.398-5.719l3.32-5.72 7.299-6.24c4.014-3.432 7.254-6.31 7.201-6.397-.054-.087-.869-.613-1.812-1.17a109.72 109.72 0 01-2.207-1.33c-.461-.295-.768-.065-4.588 3.452-2.251 2.072-4.121 3.741-4.155 3.707-.055-.055 2.126-9.654 2.393-10.536.072-.238-.374-.636-1.36-1.212-.806-.472-1.864-1.092-2.35-1.379-.686-.404-.908-.449-.995-.203m-156.728 6.367c-3.916 1.547-5.917 6.397-4.189 10.154.732 1.591 9.918 16.126 10.745 17 2.695 2.851 8.161 2.629 10.865-.442.841-.956.894-.978 2.072-.865 1.304.125 3.367-.414 3.862-1.009.347-.419-1.898-4.06-2.408-3.906-1.403.423-1.492.369-1.793-1.078-.327-1.573-9.417-16.319-11.198-18.166-1.92-1.99-5.349-2.717-7.956-1.688m3.972 5.114c.573.406 9.768 14.771 10.142 15.843.698 2.002-1.814 3.984-3.621 2.857-.96-.599-10.274-15.365-10.43-16.537-.267-2.003 2.206-3.371 3.909-2.163m72.087 29.9c-26.001 1.665-48.489 11.606-67.394 29.791-1.524 1.466-2.771 2.76-2.771 2.875 0 .522 8.627.239 9.103-.298 2.624-2.961 12.037-9.894 18.352-13.516 36.546-20.963 83.212-15.687 113.981 12.887l1.225 1.136h8.854l-1.17-1.204c-20.863-21.477-51.345-33.517-80.18-31.671M0 146.344v8.373h400v-16.745H0v8.372m77.594 19.702c-7.407 1.034-13.884 7.139-15.459 14.571-.592 2.794-.49 49.06.114 51.576 2.641 11.01 14.583 17.23 24.973 13.008l1.478-.601 1.582 1.6c2.291 2.317 4.639 3.287 8.951 3.698l1.71.163v-11.382h-.56c-.837 0-2.541-.658-3.125-1.207l-.516-.485.543-1.228c.299-.675.793-1.966 1.098-2.868l.555-1.641.074-23.939c.055-17.463 0-24.417-.202-25.707-1.573-10.075-10.996-16.985-21.216-15.558m234.434.95c0 .142 3.503 10.453 7.783 22.912l7.783 22.655v32.956h12.029v-32.926l7.764-22.511c4.271-12.381 7.838-22.699 7.928-22.928.154-.393-.214-.413-6.515-.353l-6.679.062-2.306 7.547-4.237 13.867-1.931 6.319-4.276-13.866-4.276-13.867-6.533-.062c-4.614-.045-6.534.013-6.534.195m-203.012 32.355l.064 32.371.554 1.651c5.943 17.711 30.847 17.223 36.057-.708.381-1.31.417-3.808.479-33.549l.068-32.135h-12.512v30.854c0 35.086.168 32.217-2.011 34.396-3.229 3.229-8.448 2.235-10.538-2.006l-.54-1.098-.063-31.073-.064-31.073h-11.557l.063 32.37m58.2-32.311c-.002.156-12.987 77.267-13.107 77.83l-.137.649h6.269c3.448 0 6.268-.037 6.268-.081 0-.186 2.609-16.6 2.733-17.195l.135-.649h11.932l.12.649c.067.357.685 4.39 1.374 8.962l1.253 8.314h6.347c4.976 0 6.323-.064 6.239-.295-.058-.162-3.012-17.833-6.564-39.269l-6.458-38.974h-8.202c-4.51 0-8.201.027-8.202.059m38.916 39.21v39.269h32.311v-12.028H218.16v-66.51h-12.028v39.269m40.094 0v39.269h12.029v-78.538h-12.029v39.269m21.227-33.255v6.014h12.264v66.51h12.028v-66.51h12.5v-12.028h-36.792v6.014m-184.659 5.548c1.459.745 2.513 1.809 3.222 3.254l.659 1.34v45.755l-.659 1.34c-2.466 5.022-9.351 5.102-11.826.136l-.605-1.215.005-23.126c.006-25.946-.128-23.949 1.746-26.023 1.866-2.066 5.049-2.69 7.458-1.461m94.673 22.309c1.108 7.928 2.014 14.534 2.014 14.682 0 .19-1.209.268-4.158.268h-4.158l.119-.767c.065-.421 1.005-7.115 2.088-14.875 1.084-7.761 1.995-14.022 2.025-13.916.031.107.962 6.681 2.07 14.608M8.37 194.516c-10.439 3.719-9.913 18.627.756 21.406 10.989 2.862 18.405-11.039 10.139-19.009-2.564-2.471-7.586-3.577-10.895-2.397M0 263.915v8.255h400v-16.51H0v8.255m24.219 14.328c2.842 7.949 13.925 27.079 21.898 37.795 82.766 111.24 250.217 101.667 319.743-18.279 3.239-5.588 9.33-17.664 9.747-19.325l.152-.604-6.453.011-6.452.011-1.933 3.94c-18.237 37.176-50.968 68.508-88.885 85.086-88.092 38.515-189.768 1.343-233.092-85.215l-1.918-3.833h-6.478c-6.067 0-6.467.026-6.329.413m97.479-.213c0 .735 9.119 8.951 13.797 12.432 29.334 21.823 68.732 26.6 102.006 12.368 12.471-5.334 23.479-12.735 33.014-22.195l2.708-2.687-4.318-.064-4.319-.065-1.928 1.744c-36.797 33.297-92.22 33.651-129.763.829l-2.93-2.562h-4.133c-2.274 0-4.134.09-4.134.2m149.386 27.951c-1.314.43-3.07 1.673-3.681 2.604-.485.74-.534.758-1.49.539-1.049-.24-3.038.214-3.978.908-.551.406 1.748 4.259 2.393 4.011 1.327-.509 1.413-.466 1.695.849.327 1.525.276 1.438 6.023 10.344 5.204 8.065 5.495 8.426 7.518 9.334 6.058 2.719 12.442-3.232 10.202-9.509-.468-1.313-10.262-16.467-11.272-17.443-1.677-1.619-5.134-2.383-7.41-1.637m-139.83 9.644l-3.259 5.719-6.213 5.425-7.312 6.382-1.098.957 2.405 1.362 2.405 1.361 1.935-1.782c1.064-.981 2.89-2.677 4.058-3.77 1.167-1.093 2.149-1.962 2.181-1.932.033.031-.471 2.426-1.12 5.322-.649 2.897-1.179 5.344-1.179 5.439 0 .188 4.506 2.869 4.624 2.752.04-.04.87-4.286 1.844-9.436.975-5.151 1.95-9.71 2.167-10.133.216-.422 1.666-2.996 3.221-5.72l2.917-5.111c.077-.136-3.906-2.554-4.208-2.554-.06 0-1.576 2.573-3.368 5.719m143.913-4.24c1.786 1.802 10.247 15.64 10.127 16.563-.242 1.853-2.2 2.805-3.755 1.827-.933-.587-10.538-15.528-10.544-16.402-.015-2.226 2.668-3.504 4.172-1.988m-27.926 7.2c-3.428 1.225-5.538 4.407-5.18 7.814.117 1.12 8.935 24.204 9.438 24.707.216.216 4.633-1.64 4.633-1.948 0-.161-2.016-5.404-4.481-11.652-2.465-6.248-4.481-11.575-4.481-11.838 0-1.336 1.736-2.729 3.044-2.442 1.322.291 1.737 1.13 6.283 12.741 2.439 6.226 4.463 11.359 4.498 11.406.151.201 4.579-1.728 4.49-1.956-3.663-9.391-8.997-22.783-9.332-23.432-1.54-2.984-5.669-4.559-8.912-3.4m-89.532 2.582c-.055.098-1.876 5.643-4.046 12.324-2.17 6.68-4.032 12.237-4.137 12.349-.152.161-2.261-.414-4.399-1.198-.266-.098-1.948 4.526-1.719 4.728.195.172 13.932 4.69 14.003 4.605.224-.268 1.523-4.554 1.414-4.666-.072-.074-1.106-.466-2.297-.872-1.19-.405-2.15-.83-2.133-.943.03-.194 7.812-24.186 8.034-24.769.154-.405-4.5-1.941-4.72-1.558m69.826 3.996l-1.827.352v3.629c0 4.155.357 3.618-2.79 4.198-1.686.311-1.733.306-1.914-.179-.102-.274-.598-1.758-1.102-3.298-.504-1.541-1.051-2.853-1.216-2.917-.531-.205-4.771.668-4.771.982 0 .349 10.278 29.596 10.468 29.786.072.072 1.567-.113 3.322-.412l3.191-.544v-8.53c0-4.692-.07-11.891-.156-15.998l-.156-7.468-.61.024c-.336.013-1.433.182-2.439.375m-50.752 1.059c-.056.171-1.173 6.944-2.482 15.052-1.308 8.107-2.433 15.009-2.499 15.338-.117.588-.082.604 2.278 1.011 1.318.227 2.426.383 2.462.346.084-.087 5.062-30.488 5.062-30.915 0-.222-.604-.411-1.946-.61-1.07-.159-2.132-.344-2.36-.411-.227-.067-.459.018-.515.189m13.904 3.053a15.832 15.832 0 00-.08 2.447l.077 1.179 3.95.065 3.951.064v3.144c0 1.729-.112 7.681-.249 13.227-.138 5.547-.215 10.119-.172 10.162.043.043 1.163.153 2.49.244l2.412.166.009-1.861c.005-1.024.154-8.124.331-15.777.176-7.653.275-13.963.218-14.022-.057-.059-2.956-.151-6.442-.206l-6.339-.099-.156 1.267m35.257 9.817c.001.746.059 3.213.13 5.483l.129 4.128-1.659-4.953c-1.993-5.948-1.966-5.438-.311-5.721l1.534-.263c.097-.017.177.58.177 1.326" fill="#0046e1" fill-rule="evenodd"/></svg>