<svg xmlns="http://www.w3.org/2000/svg" width="400" height="400"><path d="M180.576.79c-1.354.962-2.331 2.257-2.837 3.758-.657 1.948-.568 34.32.099 36.103.641 1.712 2.062 3.276 3.715 4.088l1.348.662 6.781.078 6.78.078v24.385l-3.596.67c-22.592 4.209-45.974 14.312-65.069 28.116l-2.038 1.474-3.253-4.405a2172.29 2172.29 0 00-3.809-5.148l-.555-.742 3.657-2.677c2.012-1.473 3.631-2.768 3.599-2.878-.116-.391-8.538-11.699-8.718-11.705-.165-.005-25.554 18.773-26.313 19.462-.274.248 7.626 11.507 8.417 11.996.089.054 1.8-1.111 3.804-2.59 2.004-1.479 3.714-2.611 3.801-2.515.591.651 7.758 10.477 7.744 10.615-.01.095-.916.969-2.014 1.942-33.093 29.32-53.628 76.172-53.628 122.351 0 9.882 1.583 27.9 2.596 29.539.173.279 13.822-1.993 14.233-2.369.112-.102-.076-2.076-.417-4.394-12.214-83.013 44.456-159.972 127.102-172.605 5.386-.823 7.01-1.694 8.391-4.5l.571-1.159.065-16.451.065-16.45h26.623l.067 16.332c.076 18.504-.05 17.306 2.056 19.591 1.379 1.496 2.646 1.946 7.72 2.74 83.259 13.035 140.152 92.165 126.003 175.252-13.756 80.775-89.803 136.415-170.5 124.746-12.086-1.748-24.009-4.948-34.906-9.37-1.621-.658-3.082-1.229-3.247-1.269-.345-.085-6.049 12.891-5.871 13.355.121.315 5.558 2.543 10.416 4.268 11.765 4.179 25.057 7.133 38.141 8.479 4.954.509 28.647.511 33.622.002 88.697-9.073 154.671-87.168 148.894-176.249-2.702-41.67-20.329-79.682-50.674-109.276l-4.263-4.158 4.133-5.573 4.134-5.573 1.214.879c.667.484 2.322 1.708 3.676 2.721 1.965 1.47 2.518 1.781 2.743 1.54 1.033-1.102 8.569-11.616 8.421-11.748-.98-.875-26.134-19.398-26.372-19.42-.284-.026-8.847 11.236-8.826 11.609.005.085 1.639 1.364 3.631 2.843l3.622 2.687-2.731 3.681a1372.251 1372.251 0 00-3.896 5.272c-1.406 1.923-.728 2.04-4.763-.826-19.078-13.55-41.227-23.032-64.091-27.434l-3.479-.67V45.552l6.663-.076c8.338-.094 9.801-.623 11.553-4.179l.534-1.085.064-17.293c.041-11.352-.02-17.604-.18-18.197-.372-1.381-1.643-3.104-2.917-3.955L267.164 0h-85.477l-1.111.79m76.264 21.734v8.136h-64.859V14.387h64.859v8.137m.929 147.427a145822.994 145822.994 0 00-20.294 31.04c-.083.13-1.112-.074-2.476-.491-27.391-8.388-52.566 17.151-43.914 44.547 1.357 4.295 4.138 9.174 7.026 12.324l1.46 1.592-7.922 12.108c-4.358 6.659-7.923 12.182-7.923 12.273 0 .445 12.155 8.14 12.419 7.863.151-.158 3.743-5.594 7.982-12.08 6.404-9.796 7.794-11.787 8.217-11.76.281.017 1.746.356 3.256.754 33.071 8.696 57.768-31.006 35.481-57.036-.722-.843-1.266-1.66-1.209-1.816.057-.155 9.142-14.106 20.188-31.001 11.046-16.894 20.125-30.83 20.175-30.967.08-.221-11.389-7.931-12.05-8.1-.146-.037-9.333 13.8-20.416 30.75m-29.531 44.101c15.926 3.289 22.041 22.639 10.795 34.163-10.813 11.08-28.993 6.822-33.953-7.952-4.805-14.314 8.4-29.26 23.158-26.211m113.507 20.677c-.011 63.37-53.444 116.911-116.686 116.922h-.767v14.623h3.137c25.771 0 54.182-9.857 76.279-26.463 32.287-24.266 52.66-64.226 52.66-103.291v-2.558h-14.623v.767M30.896 284.316v7.429h75.944v-14.858H30.896v7.429m62.972 48.467v7.311h52.83v-14.622h-52.83v7.311M9.67 370.401v7.429h97.17v-14.858H9.67v7.429" fill="#0046e1" fill-rule="evenodd"/></svg>