<svg xmlns="http://www.w3.org/2000/svg" width="400" height="400"><path d="M70.755.265C34.962 4.382 6.568 31.652.673 67.571c-.705 4.292-.904 17.165-.338 21.807 3.005 24.65 17.668 47.295 38.403 59.31l1.12.649v101.288l-2.181 1.35C16.959 264.796 3.308 286.24.333 310.639c-.878 7.202-.273 19.457 1.315 26.625 2.136 9.643 3.832 12.063 8.494 12.118 3.13.038 1.66 1.331 26.294-23.132 25.777-25.598 23.906-24.009 28.276-24.009 4.046 0 3.15-.708 18.473 14.593 15.355 15.332 14.574 14.339 14.574 18.543 0 4.44 3.03.982-29.967 34.196-17.84 17.958-17.17 17.167-17.174 20.285-.005 3.3 1.81 5.575 5.34 6.696 26.22 8.324 57.715 1.361 77.722-17.184 1.413-1.31 1.493-1.351 1.63-.83 1.577 6.031 8.845 14.215 15.899 17.904 6.307 3.298 8.039 3.556 23.888 3.556h12.877l9.728-2.014c5.35-1.108 21.508-4.485 35.906-7.506l26.18-5.492.062 7.506.062 7.506h13.673v-7.429c0-6.159.056-7.429.325-7.429.179 0 16.227 3.347 35.663 7.439l35.338 7.44 13.924-.081c13.479-.078 13.987-.097 15.892-.602 12.374-3.277 21.49-12.433 24.625-24.734l.53-2.08V254.835l-.555-2.594c-3.348-15.651-14.03-28.493-28.508-34.272-5.04-2.012-7.02-2.401-26.021-5.113l-17.557-2.506-9.906-4.023a6561.683 6561.683 0 00-10.201-4.139c-.227-.09-.292-1.867-.285-7.815l.01-7.698 1.445-1.062c12.041-8.839 22.062-26.009 24.364-41.745.605-4.137.451-3.773 1.594-3.775 3.143-.004 7.934-1.208 11.021-2.769 21.139-10.688 19.295-41.276-2.974-49.341l-1.441-.522.299-1.455c.796-3.858.622-8.247-.491-12.405l-.582-2.173V56.912c0-11.934-.065-14.962-.368-17.023-2.89-19.657-17.461-35.098-37.014-39.224l-2.594-.547h-66.981l-2.477.543c-19.571 4.291-33.624 19.09-36.956 38.919-.314 1.867-.413 5.119-.544 17.849-.136 13.335-.213 15.745-.539 16.811-.908 2.97-1.099 6.927-.519 10.771.388 2.577.4 2.539-.946 2.969-15.952 5.097-22.903 25.239-13.727 39.775 4.545 7.2 13.565 12.332 21.687 12.338.737.001 1.121.102 1.122.296.002.162.21 1.637.463 3.276 2.492 16.14 11.011 31.066 23.536 41.234l2.42 1.965-.062 7.759-.062 7.758-10.329 4.95-10.329 4.951-17.737 3.777c-23.026 4.903-22.733 4.826-28.167 7.417-14.381 6.855-23.706 19.6-26.362 36.03l-.145.898-1.107-.965c-2.076-1.809-7.515-5.811-9.915-7.294l-2.395-1.48v-101.29l2.182-1.35c29.75-18.41 44.056-54.054 35.322-88.003-1.937-7.526-3.492-9.405-7.787-9.408-3.165-.002-1.675-1.313-26.297 23.137C97.688 99.35 99.561 97.759 95.189 97.759c-4.115 0-3.295.65-18.677-14.788C61.743 68.148 62.293 68.822 62.08 65.294c-.277-4.572-1.293-3.353 24.126-28.955 24.24-24.415 23.089-23.108 23.082-26.197-.01-4.756-2.788-6.581-13.268-8.717C89.321.059 77.328-.491 70.755.265m17.389 13.556l.997.143-17.677 17.841C61.741 41.618 53.35 50.23 52.817 50.943c-5.476 7.333-5.885 17.964-.997 25.944 1.183 1.931 26.768 27.911 29.666 30.123 6.219 4.748 15.28 5.807 22.82 2.668 3.851-1.603 4.339-2.038 23.524-21.019l18.043-17.85.176 1.093c.431 2.679.474 11.651.072 15.126-2.548 22.043-15.24 40.918-34.564 51.403-2.657 1.441-3.637 2.313-4.39 3.904l-.559 1.179v112.972l.551 1.179c.62 1.329 1.996 2.679 3.503 3.438 7.412 3.731 15.276 10.221 21.237 17.528l1.356 1.662v79.336l-1.779 2.202c-11.122 13.768-27.597 22.735-45.017 24.502-2.726.277-12.322.174-14.697-.158l-.998-.139 17.714-17.874c9.94-10.031 18.174-18.533 18.765-19.374 5.735-8.179 5.674-19.25-.151-27.058-1.685-2.259-27.881-28.283-29.57-29.377-8.048-5.21-18.099-5.142-25.989.176-.829.559-8.901 8.359-19.496 18.84l-18.081 17.888-.197-1.834c-2.89-26.826 10.894-53.073 34.59-65.86 2.626-1.417 3.795-2.474 4.469-4.039l.488-1.134-.061-56.674-.061-56.674-.628-1.061c-.915-1.547-1.647-2.143-4.793-3.898-31.934-17.822-43.745-58.116-26.272-89.637C32.075 29.352 50.877 16.491 72.17 13.781c2.472-.315 13.7-.287 15.974.04M300 13.972c13.735 3.437 23.002 12.739 25.977 26.075.478 2.143.517 3.054.611 14.375l.1 12.087h-26.434l-.068-10.79-.068-10.79-.663-1.35c-.365-.742-1.096-1.72-1.625-2.173-1.928-1.651-.049-1.562-31.57-1.492l-28.406.062-1.101.647c-3.371 1.982-3.498 2.545-3.498 15.434v10.452h-26.446l.092-12.323c.091-12.314.091-12.325.703-14.825 3.263-13.351 13.646-23.195 26.948-25.548 3.015-.534 63.265-.387 65.448.159m-13.443 45.934v6.603h-39.623V53.302h39.623v6.604m41.506 21.167c-.017 5.418-4.068 10.733-9.484 12.444-2.905.917-4.219.822-16.213-1.181-29.79-4.974-41.567-4.975-71.415-.009-11.218 1.867-13.034 2.032-15.452 1.406-5.672-1.47-10.074-6.914-10.074-12.458v-1.322h122.641l-.003 1.12m-128.12 32.197l.061 13.145h-.896c-7.145 0-13.344-7.835-12.088-15.278.993-5.892 7.433-11.581 12.508-11.05.309.033.362 1.702.415 13.183m137.085-12.643c8.222 2.243 12.097 12.105 7.643 19.453-2.097 3.462-6.763 6.335-10.287 6.335h-.893V99.971l1.12.151c.616.083 1.704.31 2.417.505m-55.188 2.41c2.399.268 4.912.557 5.584.643l1.221.155-.563.854c-2.452 3.714-1.751 9.322 1.569 12.556 7.117 6.932 19.217.145 16.972-9.521-.113-.486-.137-.884-.053-.884.083.001 1.107.176 2.274.39 2.278.418 7.268.54 9.729.238l1.474-.18v13.16c-.001 21.568-.814 26.716-5.783 36.627-20.622 41.133-80.343 38.327-97.157-4.566-3.163-8.069-3.488-10.745-3.602-29.605l-.095-15.656.548.155c2.13.605 6.841.422 12.269-.477l.874-.145-.251.91c-.84 3.04.447 7.357 2.868 9.622 8.205 7.675 20.982-1.85 15.984-11.918l-.78-1.573 2.008-.263c1.988-.26 8.349-.877 10.853-1.051 4.083-.285 19.876.062 24.057.529m-36.793 93.455c14.205 4.905 30.526 4.766 44.351-.377 1.615-.6 3.123-1.152 3.35-1.225.385-.125.413.238.423 5.377l.011 5.511-6.32 20.339-6.32 20.339-13.813.003-13.813.003-6.415-20.578-6.414-20.577.003-5.358.004-5.357 1.121.482c.616.265 2.34.903 3.832 1.418m66.061 22.038c3.684 1.5 6.772 2.8 6.862 2.889.187.183-3.665 46.902-3.884 47.121-.403.403-21.987-12.338-21.96-12.962.02-.471 12.132-39.776 12.257-39.776.015 0 3.041 1.227 6.725 2.728m-81.539-1.136c2.993 9.278 11.704 37.713 11.702 38.201-.002.584-20.192 12.627-21.766 12.985-.241.054-2.122-21.106-4.015-45.178-.037-.479.677-.887 6.68-3.811 7.911-3.854 6.956-3.57 7.399-2.197m116.33 9.36c7.667 1.094 14.598 2.16 15.402 2.368 11.101 2.877 20.025 11.205 23.604 22.029 1.671 5.051 1.652 4.73 1.652 28.018V300h-27.101l-2.959 1.044-2.959 1.043v-22.134h-13.68V300h-53.301v13.441l20.182.06 20.182.06-7.655 3.253-7.654 3.252-18.129 1.402c-9.971.771-18.527 1.404-19.014 1.406l-.884.003v-15.093l6.818-19.123c3.751-10.517 6.875-19.178 6.944-19.247.069-.069 6.579 3.564 14.467 8.074 7.888 4.509 14.872 8.446 15.521 8.749 3.166 1.479 7.166.08 8.775-3.068.609-1.192.658-1.672 3.029-29.749 1.326-15.696 2.423-28.564 2.438-28.597.048-.105.217-.082 14.322 1.931m-143.677 1.725c.081.746 1.096 12.871 2.256 26.946 2.354 28.563 2.2 27.463 4.123 29.386 1.462 1.463 1.915 1.587 5.351 1.473l2.44-.081 14.804-8.467c8.142-4.656 14.843-8.424 14.892-8.372.048.051 3.177 8.751 6.953 19.333l6.865 19.239v14.941l-.885-.003c-.486-.002-9.056-.634-19.045-1.405l-18.16-1.401-14.21-6.081-14.21-6.082v-27.952h-13.439l-.061 11.066-.061 11.065-2.241-.983-2.24-.983-14.342-.064-14.342-.065.09-19.039c.1-21.046.063-20.5 1.738-25.525 3.302-9.903 11.414-18.015 21.313-21.313.973-.324 6.598-1.619 12.5-2.877a2873.322 2873.322 0 0014.741-3.174c5.386-1.189 4.994-1.221 5.17.418m73.726 31.839c.01.344-9.087 25.759-9.221 25.763-.113.003-3.169-8.404-8.464-23.286l-.944-2.653h9.312c5.122 0 9.315.079 9.317.176m-89.245 59.515c16.821 7.133 31.517 13.279 32.378 13.54.312.095 38.095 3.056 83.963 6.581l83.395 6.408v12.019c0 11.944-.004 12.031-.552 13.777-2.097 6.678-6.83 11.452-13.599 13.717-1.631.546-1.797.554-13.444.623l-11.792.071-62.633-13.192-62.633-13.193-16.141-.166-16.14-.166-6.132-6.064c-3.717-3.675-6.504-6.243-7.076-6.518-.894-.43-1.69-.457-15.271-.518l-14.328-.065v-33.244h24.939l15.066 6.39m199.854 3.266v9.657l-1.592-.133c-.876-.073-14.197-1.102-29.603-2.286l-28.011-2.153 17.162-7.362 17.162-7.362 12.441-.009 12.441-.008v9.656m-210.14 43.073c4.062 4.075 6.395 6.236 7.191 6.663l1.18.632 17.688.118 17.689.118 6.571 1.406c4.272.914 6.418 1.467 6.132 1.582-.241.097-10.83 2.362-23.53 5.033l-23.091 4.857-11.696-.071-11.697-.071-2.241-.779c-9.11-3.165-13.562-9.833-13.852-20.743l-.127-4.775h23.77l6.013 6.03" fill="#0046e1" fill-rule="evenodd"/></svg>